<mxfile host="app.diagrams.net" modified="2023-11-14T05:33:44.253Z" agent="Mozilla/5.0 (Windows NT 10.0; Win64; x64) AppleWebKit/537.36 (KHTML, like Gecko) Chrome/117.0.0.0 Safari/537.36" version="22.1.0" etag="J3NiGBh6ElKNkSDnyOyK" type="github">
  <diagram name="第 1 页" id="k6bWC8IlYyiT_uQ4D0yM">
    <mxGraphModel>
      <root>
        <mxCell id="0" />
        <mxCell id="1" parent="0" />
      </root>
    </mxGraphModel>
  </diagram>
</mxfile>
